<svg width="15" height="22" viewBox="0 0 15 22" fill="none" xmlns="http://www.w3.org/2000/svg">
<path d="M4 8V19M7.5 8V19M11 8V19" stroke="#8893B0" stroke-linecap="round"/>
<path d="M14.5 5.5L0.5 5.5L0.5 4C0.5 3.17157 1.17157 2.5 2 2.5L13 2.5C13.8284 2.5 14.5 3.17157 14.5 4L14.5 5.5Z" stroke="#8893B0"/>
<path d="M9.5 2.5L5.5 2.5L5.5 2C5.5 1.17157 6.17157 0.5 7 0.5L8 0.5C8.82843 0.5 9.5 1.17157 9.5 2L9.5 2.5Z" stroke="#8893B0"/>
<path d="M1.5 5.5H13.5V20C13.5 20.8284 12.8284 21.5 12 21.5H3C2.17157 21.5 1.5 20.8284 1.5 20V5.5Z" stroke="#8893B0"/>
</svg>
