<svg width="25" height="11" viewBox="0 0 25 11" fill="none" xmlns="http://www.w3.org/2000/svg">
<path d="M5.628 6.80798L4.278 3.30998C4.238 3.20598 4.196 3.08598 4.152 2.94998C4.108 2.80998 4.066 2.66198 4.026 2.50598C3.942 2.82998 3.856 3.09998 3.768 3.31598L2.418 6.80798H5.628ZM8.052 9.99998H7.152C7.048 9.99998 6.964 9.97398 6.9 9.92198C6.836 9.86998 6.788 9.80398 6.756 9.72398L5.952 7.64798H2.094L1.29 9.72398C1.266 9.79598 1.22 9.85998 1.152 9.91598C1.084 9.97198 1 9.99998 0.9 9.99998H0L3.438 1.40198H4.614L8.052 9.99998Z" fill="white"/>
<path d="M15.798 1.83398C15.798 1.96598 15.758 2.09398 15.678 2.21798L10.812 9.05198H15.726V9.99998H9.28198V9.54398C9.28198 9.47998 9.29198 9.41998 9.31198 9.36398C9.33598 9.30798 9.36398 9.25398 9.39598 9.20198L14.274 2.34998H9.50998V1.40198H15.798V1.83398Z" fill="white"/>
<path d="M20.964 10L20.964 1" stroke="white" stroke-linecap="round"/>
<path d="M17.964 4L20.964 1L23.964 4" stroke="white" stroke-linecap="round"/>
</svg>
