<svg width="23" height="23" viewBox="0 0 23 23" fill="none" xmlns="http://www.w3.org/2000/svg">
<path d="M10.572 1.31085C10.9079 0.474379 12.0921 0.47438 12.428 1.31085L14.7575 7.11185C14.9005 7.46805 15.2348 7.71094 15.6178 7.73691L21.8548 8.15981C22.7541 8.22079 23.12 9.34697 22.4283 9.92492L17.6311 13.933C17.3365 14.1791 17.2088 14.5721 17.3024 14.9444L18.8276 21.0068C19.0475 21.8809 18.0895 22.5769 17.3261 22.0977L12.0317 18.7738C11.7066 18.5697 11.2934 18.5697 10.9683 18.7738L5.67393 22.0977C4.91051 22.5769 3.95252 21.8809 4.17244 21.0068L5.69756 14.9444C5.79121 14.5721 5.66351 14.1791 5.36894 13.933L0.571725 9.92492C-0.120005 9.34697 0.245915 8.22079 1.14524 8.15981L7.38218 7.73691C7.76516 7.71094 8.09947 7.46805 8.24251 7.11185L10.572 1.31085Z" fill="#4BD0FD"/>
</svg>
