<svg width="23" height="23" viewBox="0 0 23 23" fill="none" xmlns="http://www.w3.org/2000/svg">
<path d="M11.036 1.49717C11.204 1.07894 11.796 1.07894 11.964 1.49717L14.2935 7.29817C14.5081 7.83248 15.0095 8.19681 15.584 8.23576L21.8209 8.65866C22.2706 8.68915 22.4536 9.25224 22.1077 9.54122L17.3105 13.5493C16.8686 13.9185 16.6771 14.508 16.8176 15.0664L18.3427 21.1287C18.4526 21.5658 17.9736 21.9138 17.5919 21.6742L12.2976 18.3503C11.8099 18.0442 11.1901 18.0442 10.7024 18.3503L5.40807 21.6742C5.02637 21.9138 4.54737 21.5658 4.65733 21.1287L6.18245 15.0664C6.32292 14.508 6.13138 13.9185 5.68953 13.5493L0.892309 9.54121C0.546445 9.25224 0.729404 8.68915 1.17907 8.65866L7.41601 8.23576C7.99047 8.19681 8.49193 7.83248 8.70649 7.29817L11.036 1.49717Z" stroke="#8893B0"/>
</svg>
